# xmcd
#
# Track frame offsets:
# 150
# 17838
# 44310
# 69201
# 83832
# 97970
# 121705
# 140448
# 164042
# 195219
# 215483
# 236617
#
# Disc length: 3442 seconds
#
# Revision: 0
# Processed by: cddbd v1.5.1PL0 Copyright (c) Steve Scherf et al.
# Submitted via: Audion 3.0.2 (http://www.panic.com/audion/)
#
DISCID=970d700c
DTITLE=J.B. - BEATSNP05-NP08
DYEAR=1900
DGENRE=
TTITLE0=BEAT NP05-1
TTITLE1=BEAT NP05-2
TTITLE2=BEAT NP05-3
TTITLE3=BEAT NP06-1
TTITLE4=BEAT NP06-2
TTITLE5=BEAT NP06-3
TTITLE6=BEAT NP07-1
TTITLE7=BEAT NP07-2
TTITLE8=BEAT NP07-3
TTITLE9=BEAT NP08-1
TTITLE10=BEAT NP08-2
TTITLE11=BEAT NP08-3
EXTD=
EXTT0=
EXTT1=
EXTT2=
EXTT3=
EXTT4=
EXTT5=
EXTT6=
EXTT7=
EXTT8=
EXTT9=
EXTT10=
EXTT11=
PLAYORDER=
